<?xml version="1.0" encoding="utf-8"?><!-- Uploaded to: SVG Repo, www.svgrepo.com, Generator: SVG Repo Mixer Tools -->
<svg version="1.1" id="Uploaded to svgrepo.com" xmlns="http://www.w3.org/2000/svg" xmlns:xlink="http://www.w3.org/1999/xlink" 
	 width="800px" height="800px" viewBox="0 0 32 32" xml:space="preserve">
<style type="text/css">
	.feather_een{fill:#0B1719;}
</style>
<path class="feather_een" d="M28,7h-5l-1.171-2.342C21.321,3.642,20.282,3,19.146,3h-6.292c-1.136,0-2.175,0.642-2.683,1.658L9,7H4
	c-1.657,0-3,1.343-3,3v15c0,1.657,1.343,3,3,3h24c1.657,0,3-1.343,3-3V10C31,8.343,29.657,7,28,7z M30,25c0,1.103-0.897,2-2,2H4
	c-1.103,0-2-0.897-2-2V10c0-1.103,0.897-2,2-2h5.618l1.447-2.894C11.406,4.424,12.092,4,12.854,4h6.292
	c0.762,0,1.448,0.424,1.789,1.106L22.382,8H28c1.103,0,2,0.897,2,2V25z M8,10c0-0.552-0.448-1-1-1H4c-0.552,0-1,0.448-1,1v2
	c0,0.552,0.448,1,1,1h3c0.552,0,1-0.448,1-1V10z M7,12H4v-2h3V12z M16,9c-4.418,0-8,3.582-8,8s3.582,8,8,8s8-3.582,8-8
	S20.418,9,16,9z M16,24c-3.86,0-7-3.14-7-7s3.14-7,7-7s7,3.14,7,7S19.86,24,16,24z M16,11c-3.314,0-6,2.686-6,6s2.686,6,6,6
	s6-2.686,6-6S19.314,11,16,11z M16,22c-2.757,0-5-2.243-5-5s2.243-5,5-5s5,2.243,5,5S18.757,22,16,22z"/>
</svg>